<svg width="28" height="24" viewBox="0 0 28 24" fill="none" xmlns="http://www.w3.org/2000/svg">
<path fill-rule="evenodd" clip-rule="evenodd" d="M23.1451 23.9986L23.1382 23.9981L23.1229 23.9971C23.1101 23.9961 23.0922 23.9948 23.0696 23.9929C23.0242 23.9891 22.9596 23.9832 22.878 23.9744C22.715 23.957 22.4836 23.9281 22.2026 23.8822C21.642 23.7904 20.8756 23.6292 20.0562 23.35C18.5584 22.8397 16.782 21.8988 15.8517 20.1763C15.1476 20.2531 14.4281 20.2926 13.6945 20.2926C9.97965 20.2926 6.5773 19.3837 4.08542 17.7197C1.58091 16.0473 0 13.6087 0 10.6231C0 7.73105 0.9763 5.04065 3.23533 3.08279C5.49117 1.12772 8.93839 -0.0211848 13.7172 0.000295971C18.4497 0.0217729 21.8758 1.17175 24.1318 3.11363C26.3916 5.05886 27.3918 7.72563 27.428 10.6162C27.4705 13.9844 25.1254 16.8219 21.6911 18.5223C21.7 18.5159 21.7091 18.5096 21.7184 18.5036L21.6486 18.5433C21.6628 18.5363 21.6769 18.5293 21.6911 18.5223C21.5149 18.6493 21.3995 18.8575 21.3834 19.202C21.3659 19.5743 21.4723 20.0448 21.6887 20.5523C21.9026 21.0537 22.2086 21.5551 22.548 21.979C22.8927 22.4095 23.2441 22.7257 23.533 22.8911C23.7867 23.0364 23.9005 23.3223 23.8088 23.5844C23.7171 23.8465 23.4431 24.0173 23.1451 23.9986Z" fill="#D9D9D9"/>
<path d="M8.80014 11.8859C9.55756 11.8859 10.1716 11.2719 10.1716 10.5145C10.1716 9.75708 9.55756 9.14307 8.80014 9.14307C8.04272 9.14307 7.42871 9.75708 7.42871 10.5145C7.42871 11.2719 8.04272 11.8859 8.80014 11.8859Z" fill="#444444"/>
<path d="M13.5999 11.8859C14.3574 11.8859 14.9714 11.2719 14.9714 10.5145C14.9714 9.75708 14.3574 9.14307 13.5999 9.14307C12.8425 9.14307 12.2285 9.75708 12.2285 10.5145C12.2285 11.2719 12.8425 11.8859 13.5999 11.8859Z" fill="#444444"/>
<path d="M18.4002 11.8859C19.1577 11.8859 19.7717 11.2719 19.7717 10.5145C19.7717 9.75708 19.1577 9.14307 18.4002 9.14307C17.6428 9.14307 17.0288 9.75708 17.0288 10.5145C17.0288 11.2719 17.6428 11.8859 18.4002 11.8859Z" fill="#444444"/>
<path d="M22.9313 23.4773L22.9313 23.4773C23.0086 23.4856 23.0693 23.4911 23.1112 23.4946C23.1112 23.4946 23.1113 23.4946 23.1114 23.4946L23.1587 23.4983L23.1591 23.4984L23.17 23.4992L23.174 23.4994L23.1765 23.4996C23.2747 23.5057 23.3268 23.4482 23.3369 23.4193C23.3417 23.4055 23.3414 23.3928 23.3358 23.3788C23.33 23.3641 23.3158 23.3429 23.2845 23.325C22.9223 23.1176 22.5252 22.7505 22.1577 22.2915M22.9313 23.4773L22.548 21.979M22.9313 23.4773C22.7763 23.4607 22.5541 23.433 22.2833 23.3887C21.7419 23.3001 21.0038 23.1447 20.2174 22.8767C18.7632 22.3812 17.1326 21.4957 16.2916 19.9386L16.1318 19.6427L15.7975 19.6792C15.1115 19.7541 14.4101 19.7926 13.6945 19.7926C10.0543 19.7926 6.75474 18.901 4.36308 17.3039C1.96791 15.7045 0.5 13.409 0.5 10.6231C0.5 7.8472 1.43342 5.30612 3.5628 3.46064C5.69751 1.61054 9.01118 0.479147 13.7149 0.500291M22.9313 23.4773L21.7345 18.5007L21.4734 18.0722M22.1577 22.2915L22.548 21.979M22.1577 22.2915C22.1577 22.2915 22.1577 22.2915 22.1577 22.2915L22.548 21.979M22.1577 22.2915C21.7918 21.8345 21.4617 21.2943 21.2288 20.7485L21.2288 20.7484C20.9958 20.2022 20.8616 19.6534 20.8839 19.1786C20.9053 18.7223 21.0693 18.3541 21.3987 18.1167L21.4256 18.1539M22.548 21.979C22.2086 21.5551 21.9026 21.0537 21.6887 20.5523C21.4723 20.0448 21.3659 19.5743 21.3834 19.202C21.398 18.8912 21.4933 18.6913 21.6412 18.5619L21.4256 18.1539M21.4256 18.1539L21.4251 18.1531L21.3988 18.1166C21.4005 18.1154 21.4022 18.1142 21.4039 18.113L21.4016 18.1085L21.4714 18.0689L21.4734 18.0722M21.4256 18.1539L21.4341 18.1657L21.5261 18.2934L21.5258 18.2929L21.4734 18.0722M21.4734 18.0722C24.8056 16.421 26.9672 13.7275 26.9281 10.6225V10.6224C26.8933 7.84749 25.9373 5.32751 23.8056 3.49257C21.6689 1.65336 18.3736 0.521433 13.7149 0.500291M13.7149 0.500291L13.7172 0.000295971L13.7149 0.500291ZM21.4376 18.0898L21.4285 18.0943L21.429 18.0955C21.4207 18.1012 21.4124 18.1069 21.404 18.1129L21.4376 18.0898ZM21.4376 18.0898C21.4402 18.0881 21.4428 18.0864 21.4454 18.0847L21.446 18.0857M21.4376 18.0898L21.446 18.0857M21.446 18.0857L21.4692 18.0742L21.5662 18.2701M21.446 18.0857L21.5662 18.2701M21.5662 18.2701L21.5662 18.2701L21.5662 18.2701Z" stroke="#444444"/>
</svg>
