<svg width="16" height="15" viewBox="0 0 16 15" fill="none" xmlns="http://www.w3.org/2000/svg">
<path fill-rule="evenodd" clip-rule="evenodd" d="M8.40175 0.0299899C6.9775 0.0299899 5.62522 0.396675 4.5165 1.12563C3.9662 1.48717 3.68231 1.98521 2.8873 0.669712C1.50225 1.51348 1.25019 3.09816 1.91585 3.83116C1.31329 4.90509 0.969238 6.14351 0.969238 7.46232C0.969238 11.5673 4.29682 14.8948 8.40175 14.8948C12.5065 14.8948 15.8341 11.5673 15.8341 7.46232C15.8341 5.91408 15.3605 4.47622 14.5502 3.28601C15.2981 1.78026 14.4545 0.685535 13.4369 0C13.0914 0.877985 12.8942 1.38837 11.8121 0.857378C10.7798 0.350495 9.63115 0.0299899 8.40175 0.0299899Z" fill="url(#paint0_linear_2315_1678)"/>
<path d="M10.2934 7.701C10.4261 7.67341 10.556 7.7584 10.5834 7.89087C10.611 8.02335 10.5258 8.15325 10.3933 8.18083C10.1385 8.23401 9.84448 8.30669 9.55911 8.41028C9.28201 8.51091 9.0134 8.64044 8.80035 8.8086C8.69436 8.89231 8.54056 8.87429 8.45683 8.7683C8.37312 8.66233 8.39116 8.50853 8.49713 8.4248C8.75765 8.21892 9.07263 8.06548 9.39223 7.94958C9.70353 7.83642 10.0202 7.75785 10.2934 7.701Z" fill="#2B2A29"/>
<path d="M2.86131 8.28914C2.72625 8.27755 2.62616 8.15852 2.63775 8.02328C2.64935 7.88824 2.76838 7.78814 2.90362 7.79974C3.18088 7.82365 3.50415 7.86358 3.82815 7.93902C4.15952 8.01611 4.49051 8.13091 4.77348 8.30369C4.88901 8.37433 4.92545 8.52519 4.85499 8.64075C4.78451 8.75628 4.63365 8.79272 4.51809 8.72224C4.28627 8.58058 4.00405 8.48398 3.71684 8.41719C3.42263 8.34858 3.12165 8.31159 2.86131 8.28914Z" fill="#2B2A29"/>
<path fill-rule="evenodd" clip-rule="evenodd" d="M3.74599 8.25703C4.03908 8.20791 4.32242 8.44065 4.37872 8.77698C4.43503 9.11313 4.24293 9.42553 3.94985 9.47467C3.65656 9.52378 3.37341 9.29086 3.31692 8.95471C3.26064 8.61838 3.45271 8.30616 3.74599 8.25703Z" fill="#282829"/>
<path fill-rule="evenodd" clip-rule="evenodd" d="M9.31538 8.26631C9.60848 8.21719 9.89182 8.44993 9.94812 8.78626C10.0044 9.12241 9.81252 9.43481 9.51923 9.48394C9.22615 9.53306 8.94281 9.30014 8.88651 8.96399C8.8302 8.62766 9.02229 8.31544 9.31538 8.26631Z" fill="#282829"/>
<path d="M5.00171 11.7018C4.90421 11.7951 4.74929 11.7915 4.656 11.694C4.56272 11.5965 4.56622 11.4418 4.66374 11.3485C5.20134 10.8341 5.92037 10.5673 6.64417 10.5853C7.3354 10.6028 8.03105 10.8786 8.57806 11.4451C8.67188 11.5426 8.66875 11.6977 8.57125 11.7915C8.47374 11.8854 8.31863 11.8823 8.22479 11.7847C7.77311 11.3169 7.20036 11.0891 6.63258 11.0749C6.03554 11.0598 5.44328 11.2792 5.00171 11.7018Z" fill="#2B2A29"/>
<defs>
<linearGradient id="paint0_linear_2315_1678" x1="9.77687" y1="14.7661" x2="7.02682" y2="0.128424" gradientUnits="userSpaceOnUse">
<stop stop-color="#8E25E1"/>
<stop offset="1" stop-color="#524FEA"/>
</linearGradient>
</defs>
</svg>
