<svg width="27" height="24" viewBox="0 0 27 24" fill="none" xmlns="http://www.w3.org/2000/svg">
<path d="M13.0005 5.26643L13.4478 6.16082L13.8949 5.26636C14.725 3.6059 15.5261 2.42335 16.4912 1.65121C17.4385 0.89337 18.5833 0.5 20.1709 0.5C23.6149 0.5 26.4027 3.28807 26.4027 6.72384C26.4027 9.89438 24.825 12.4132 22.3351 15.0163C21.0894 16.3186 19.6328 17.6245 18.0531 19.0367L17.9678 19.1131C16.5271 20.4011 14.991 21.7744 13.4477 23.2955C11.907 21.777 10.3739 20.4059 8.93597 19.1198L8.84319 19.0368C7.26424 17.6246 5.80861 16.3188 4.56385 15.0164C2.07591 12.4134 0.5 9.8946 0.5 6.7239C0.5 3.28774 3.28824 0.500062 6.72384 0.500062C8.31141 0.500062 9.45628 0.893416 10.4036 1.65126C11.3688 2.42339 12.1701 3.60595 13.0005 5.26643Z" stroke="url(#paint0_linear_2340_1738)"/>
<defs>
<linearGradient id="paint0_linear_2340_1738" x1="-3.42857" y1="3.42857" x2="30.8571" y2="24" gradientUnits="userSpaceOnUse">
<stop stop-color="#F3939D"/>
<stop offset="0.223958" stop-color="#EB2E41"/>
<stop offset="0.557292" stop-color="#EB2E41"/>
<stop offset="1" stop-color="#511319"/>
</linearGradient>
</defs>
</svg>
