<svg width="17" height="15" viewBox="0 0 17 15" fill="none" xmlns="http://www.w3.org/2000/svg">
<path d="M11.1036 11.807C10.2447 12.5749 9.32828 13.3942 8.40479 14.2969C7.48296 13.3958 6.56835 12.5778 5.71118 11.8112L5.652 11.7583C4.66401 10.8746 3.75994 10.0634 2.98795 9.25572C1.44555 7.64198 0.5 6.11243 0.5 4.20244C0.5 2.1584 2.15869 0.500039 4.2024 0.500039C5.15966 0.500039 5.83179 0.735789 6.38512 1.17845C6.95633 1.6354 7.44242 2.3452 7.9576 3.37538L8.40488 4.26978L8.85203 3.37532C9.36702 2.34516 9.85302 1.63536 10.4242 1.17842C10.9774 0.73576 11.6496 0.5 12.6068 0.5C14.6559 0.5 16.3142 2.15875 16.3142 4.2024C16.3142 6.11222 15.3676 7.64172 13.8239 9.25558C13.0513 10.0633 12.1467 10.8745 11.1582 11.7582L11.1036 11.807Z" stroke="#EB2E41"/>
</svg>
