<svg width="22" height="18" viewBox="0 0 22 18" fill="none" xmlns="http://www.w3.org/2000/svg">
<path d="M11.4437 5.75871C11.4186 5.77104 11.3681 5.78733 11.2769 5.78733H7.18293H6.56403C6.0732 5.72761 5.50083 5.51905 4.99699 5.05409C4.27938 4.39186 3.6599 3.17073 3.6599 1C3.6599 0.834315 3.52559 0.7 3.3599 0.7H1.0119C0.846219 0.7 0.711905 0.834315 0.711905 1V5.54549V10.2279C0.654686 10.8769 0.792114 11.8376 1.3946 12.652C2.01228 13.4869 3.08942 14.1285 4.83058 14.1538C6.66858 14.1804 8.21162 14.1837 9.35399 14.178C10.4143 14.1846 10.9301 14.1765 11.3461 14.1659C11.3696 14.1735 11.394 14.1849 11.4148 14.2007C11.4341 14.2154 11.4505 14.2339 11.463 14.2595C11.4754 14.2851 11.4886 14.3275 11.4886 14.3956V16.6533C11.4886 16.819 11.6229 16.9533 11.7886 16.9533H14.1366C14.2157 16.9533 14.2916 16.9221 14.3478 16.8664L21.2112 10.0632C21.3271 9.94832 21.3299 9.76185 21.2175 9.64353L14.3541 2.41891C14.2975 2.35929 14.2189 2.32554 14.1366 2.32554H12.9626H11.7886C11.6229 2.32554 11.4886 2.45985 11.4886 2.62554V5.54549C11.4886 5.56737 11.491 5.5892 11.4958 5.61056C11.5046 5.65011 11.4989 5.69946 11.4822 5.72647C11.4765 5.73578 11.4668 5.7474 11.4437 5.75871Z" fill="#313154" stroke="#313154" stroke-width="0.6" stroke-linejoin="round"/>
<path d="M1.3119 1C1.3119 0.834315 1.17759 0.7 1.0119 0.7C0.846219 0.7 0.711905 0.834315 0.711905 1V10.2279C0.654686 10.8769 0.792114 11.8376 1.3946 12.652C2.01228 13.4869 3.08942 14.1285 4.83058 14.1538C8.1495 14.2019 10.5067 14.174 11.2797 14.1538C11.3138 14.1545 11.3719 14.168 11.4148 14.2007C11.4341 14.2154 11.4505 14.2339 11.463 14.2595C11.4754 14.2851 11.4886 14.3275 11.4886 14.3956V16.6533C11.4886 16.7744 11.5614 16.8836 11.6732 16.9302C11.785 16.9768 11.9138 16.9516 11.9998 16.8664L18.8632 10.0632C18.9791 9.94832 18.9819 9.76185 18.8695 9.64353L12.0061 2.41891C11.9216 2.32993 11.7914 2.30141 11.6774 2.34693C11.5634 2.39244 11.4886 2.5028 11.4886 2.62554V5.54549C11.4886 5.56737 11.491 5.5892 11.4958 5.61056C11.5045 5.65011 11.4989 5.69946 11.4822 5.72647C11.4765 5.73578 11.4668 5.7474 11.4437 5.75871C11.4186 5.77104 11.3681 5.78733 11.2769 5.78733H4.83493C4.82239 5.78733 4.80987 5.78812 4.79743 5.78968C4.23562 5.86046 3.37179 5.72111 2.64899 5.05409C1.93138 4.39186 1.3119 3.17073 1.3119 1Z" fill="#21212D" stroke="#313154" stroke-width="0.6" stroke-linejoin="round"/>
</svg>
