<svg width="10" height="10" viewBox="0 0 10 10" fill="none" xmlns="http://www.w3.org/2000/svg">
<path d="M3.08385 9.27997L2.23657 6.67529L3.4879 6.74955L3.54955 7.48206C3.6262 7.62639 3.80699 7.6923 3.88363 7.83664C3.92279 7.91089 3.92945 7.99849 3.91862 8.08192C3.89613 8.25462 3.80532 8.4415 3.89363 8.59251C3.99777 8.77022 4.2577 8.82111 4.24937 9.06556C4.24104 9.28915 3.19215 9.59284 3.08385 9.27997Z" fill="#C62828"/>
<path d="M2.95698 9.84183L2.87783 9.86936C2.56542 9.97782 2.22468 9.81262 2.11637 9.49976L1.1333 6.66064H2.48794C2.53626 6.79914 2.55292 6.85003 2.60207 6.98852C2.64706 7.1145 2.70871 7.17708 2.66872 7.31056C2.62873 7.44238 2.59541 7.59256 2.66373 7.72104C2.74037 7.86537 2.92116 7.93128 2.9978 8.07561C3.03696 8.14987 3.04362 8.23747 3.03279 8.3209C3.0103 8.4936 2.91949 8.68048 3.0078 8.83149C3.11194 9.0092 3.37187 9.06009 3.36354 9.30454C3.35604 9.52813 3.16692 9.76924 2.95698 9.84183Z" fill="#F44336"/>
<path d="M3.36373 9.30361C3.2521 9.65902 2.97384 9.7825 2.68308 9.80169C2.40149 9.82087 2.20654 9.66319 2.20654 9.66319C2.60977 10.2706 3.64449 9.89262 3.85444 9.77749C4.17518 9.60145 4.2285 9.42291 4.24933 9.08669C4.251 9.06583 4.21601 8.99492 4.15019 9.04831C4.05022 9.12841 3.93691 9.15761 3.81028 9.18347C3.65449 9.21517 3.57118 9.206 3.50786 9.21017C3.42622 9.21517 3.38539 9.23353 3.36373 9.30361Z" fill="#A12524"/>
<path d="M2.98163 8.57121C2.94997 8.70136 3.02745 8.71888 3.10576 8.72054C3.29654 8.72555 3.54814 8.6488 3.67227 8.5929C3.71976 8.57204 3.76392 8.54451 3.80391 8.51364C3.8339 8.49028 3.85389 8.45607 3.85639 8.41853C3.86222 8.30924 3.90388 8.19327 3.91804 8.08231C3.92387 8.03642 3.92387 7.98887 3.91638 7.94381C3.91054 7.90794 3.86889 7.88958 3.83723 7.9071C3.75725 7.95132 3.61479 8.02474 3.51981 8.04393C3.33153 8.08231 3.21573 8.07897 3.13408 8.08064C3.07327 8.08147 3.02495 8.1357 3.03328 8.19577C3.03911 8.23749 3.03828 8.28004 3.03328 8.32092C3.02245 8.40268 3.00162 8.48861 2.98163 8.57121Z" fill="#A12524"/>
<path d="M1.1333 6.66064L1.39406 7.41819C1.39406 7.41819 1.55319 7.06361 2.18635 7.12869C2.6154 7.1729 2.7437 7.32308 2.7437 7.32308L2.7712 6.68234L1.1333 6.66064Z" fill="#C62828"/>
<path d="M8.2626 8.94376C8.2626 8.94376 5.44535 6.85514 3.10306 6.79255C2.09565 6.76585 1.36488 6.76335 1.18906 6.76335C0.637443 6.76418 0 5.97897 0 4.59712C0 3.21528 0.717436 2.2832 1.26905 2.2832C1.35071 2.2832 2.22313 2.33494 3.27804 2.3049C5.75949 2.2348 8.2626 0.250488 8.2626 0.250488V8.94376Z" fill="#E0E0E0"/>
<path d="M6.34468 5.84131C6.25053 6.00984 6.24886 6.39361 6.27386 6.74903C6.29219 7.00349 6.03805 7.19204 5.80057 7.0986C4.18071 6.4662 2.85083 6.52293 2.85083 6.52293L2.91499 6.7874C2.97665 6.78907 3.03915 6.79074 3.10247 6.79241C4.51735 6.82995 6.10554 7.60668 7.14128 8.21656C7.14128 8.21656 6.82131 7.75602 6.65799 7.12696C6.48884 6.4712 6.34468 5.84131 6.34468 5.84131Z" fill="#BDBDBD"/>
<path d="M2.85228 7.00439L2.78979 7.11285L3.05722 7.63596C3.08971 7.69937 3.1597 7.73441 3.22968 7.72106L3.68122 7.63012C3.68122 7.63012 3.80702 7.45074 3.83118 7.40986C3.85534 7.36898 3.84618 7.34479 3.84618 7.34479L3.33298 7.44324C3.33215 7.44324 2.86894 7.0094 2.85228 7.00439Z" fill="#353738"/>
<path d="M3.19399 7.38429L2.84741 7.00689L3.47141 7.00439L3.82465 7.31015C3.86714 7.35513 3.83965 7.41095 3.77883 7.42095L3.42809 7.47594C3.33978 7.48926 3.25064 7.45511 3.19399 7.38429Z" fill="#616161"/>
<path d="M2.52183 4.59712C2.52183 3.80857 2.77926 2.92406 3.10167 2.30907C2.12776 2.3291 1.34631 2.2832 1.26883 2.2832C0.717308 2.2832 0 3.21528 0 4.59712C0 5.97897 0.63733 6.76335 1.18968 6.76335C1.36547 6.76335 2.09611 6.76585 3.10334 6.79256C3.10917 6.79256 3.11583 6.79339 3.12167 6.79339C2.74843 6.12249 2.52183 5.38317 2.52183 4.59712Z" fill="#F44336"/>
<path d="M8.26263 8.94376C9.22168 8.94376 9.99915 6.9977 9.99915 4.59712C9.99915 2.19654 9.22168 0.250488 8.26263 0.250488C7.30359 0.250488 6.52612 2.19654 6.52612 4.59712C6.52612 6.9977 7.30359 8.94376 8.26263 8.94376Z" fill="#2F7889"/>
<path d="M6.60268 3.32568C6.55352 3.72789 6.52686 4.15512 6.52686 4.59822C6.52686 6.99892 7.30429 8.94485 8.26337 8.94485C9.22245 8.94485 9.99988 6.99892 9.99988 4.59822C9.99988 4.15512 9.97321 3.72872 9.92405 3.32568H6.60268Z" fill="url(#paint0_linear_2243_43245)"/>
<path d="M8.26261 9.19394C7.13021 9.19394 6.27612 7.21797 6.27612 4.59697C6.27612 1.97597 7.13021 0 8.26261 0C9.39501 0 9.99912 1.97681 9.99912 4.59697C9.99912 7.21797 9.39501 9.19394 8.26261 9.19394ZM8.26261 0.500668C7.55934 0.500668 6.77608 2.18291 6.77608 4.59697C6.77608 7.01102 7.55934 8.69327 8.26261 8.69327C8.96588 8.69327 9.74915 7.01102 9.74915 4.59697C9.74915 2.18291 8.96588 0.500668 8.26261 0.500668Z" fill="#E0E0E0"/>
<path d="M7.12956 1.65042C7.05458 1.85398 6.78382 2.30534 6.65886 3.79039C6.65469 3.84045 6.6272 4.0607 6.50473 4.0607C6.42309 4.0607 6.39893 3.93723 6.39893 3.76703C6.39893 3.10376 6.5089 2.37208 6.76466 1.64958C6.90962 1.24161 7.2337 1.37009 7.12956 1.65042Z" fill="white"/>
<path d="M6.82435 3.59033L8.39893 3.77388V5.43413L6.83601 5.71612C6.73271 4.40377 6.82435 3.59033 6.82435 3.59033Z" fill="url(#paint1_radial_2243_43245)"/>
<path d="M8.39909 5.43516C8.61626 5.43516 8.79232 5.0635 8.79232 4.60503C8.79232 4.14656 8.61626 3.7749 8.39909 3.7749C8.18191 3.7749 8.00586 4.14656 8.00586 4.60503C8.00586 5.0635 8.18191 5.43516 8.39909 5.43516Z" fill="#E0E0E0"/>
<path d="M4.45897 2.84307C4.98726 2.77299 5.50888 2.61197 5.9555 2.3208C5.69636 3.01744 5.57304 3.85674 5.66886 4.5951C5.42222 4.47329 5.17307 4.35148 4.90976 4.27306C4.68978 4.20798 4.4623 4.17378 4.23482 4.14708C3.66238 4.07783 3.13242 4.06699 2.55664 4.07783C2.57331 4.07783 2.61914 3.68822 2.68913 3.39788C2.75912 3.10754 2.83078 2.93902 2.83078 2.93902C2.83078 2.93902 3.95818 2.90982 4.45897 2.84307Z" fill="white"/>
<path d="M2.60602 2.90283C1.7979 2.92703 0.895643 2.93787 0.895643 2.93787C0.895643 2.93787 0.488252 3.29328 0.415771 4.07669C0.415771 4.07669 1.37801 4.07669 2.25195 4.09254C2.3136 3.52856 2.49522 3.11224 2.60602 2.90283Z" fill="#FF7555"/>
<defs>
<linearGradient id="paint0_linear_2243_43245" x1="8.26288" y1="8.37549" x2="8.26288" y2="3.4852" gradientUnits="userSpaceOnUse">
<stop stop-color="#353738"/>
<stop offset="1" stop-color="#353738" stop-opacity="0"/>
</linearGradient>
<radialGradient id="paint1_radial_2243_43245" cx="0" cy="0" r="1" gradientUnits="userSpaceOnUse" gradientTransform="translate(8.09956 4.73811) scale(1.74267 2.96938)">
<stop offset="0.4156" stop-color="#82AEC0"/>
<stop offset="1" stop-color="#7FA9BB" stop-opacity="0"/>
</radialGradient>
</defs>
</svg>
