<svg width="10" height="10" viewBox="0 0 10 10" fill="none" xmlns="http://www.w3.org/2000/svg">
<path d="M2.66552 2.42835C2.46026 2.61308 2.44362 2.92923 2.62835 3.13448C2.81308 3.33974 3.12923 3.35638 3.33448 3.17165L2.66552 2.42835ZM5 1L5.33448 0.628353L5 0.327319L4.66552 0.628353L5 1ZM6.66552 3.17165C6.87077 3.35638 7.18692 3.33974 7.37165 3.13448C7.55638 2.92923 7.53974 2.61308 7.33448 2.42835L6.66552 3.17165ZM3.33448 3.17165L5.33448 1.37165L4.66552 0.628353L2.66552 2.42835L3.33448 3.17165ZM4.66552 1.37165L6.66552 3.17165L7.33448 2.42835L5.33448 0.628353L4.66552 1.37165ZM4.5 1V10H5.5V1H4.5Z" fill="#D2D2D5"/>
</svg>
